<?xml version="1.0" encoding="UTF-8" standalone="no"?>
<!-- Created with Inkscape (http://www.inkscape.org/) -->

<svg
   width="2048mm"
   height="2048mm"
   viewBox="0 0 2048 2048"
   version="1.1"
   id="svg5"
   xml:space="preserve"
   sodipodi:docname="cat_kit.svg"
   inkscape:version="1.3.2 (091e20e, 2023-11-25)"
   inkscape:export-filename="../Pictures/CheshireCat-4096x4096_plus_writing.png"
   inkscape:export-xdpi="50.799999"
   inkscape:export-ydpi="50.799999"
   xmlns:inkscape="http://www.inkscape.org/namespaces/inkscape"
   xmlns:sodipodi="http://sodipodi.sourceforge.net/DTD/sodipodi-0.dtd"
   xmlns="http://www.w3.org/2000/svg"
   xmlns:svg="http://www.w3.org/2000/svg"><sodipodi:namedview
     id="namedview7"
     pagecolor="#ffffff"
     bordercolor="#999999"
     borderopacity="1"
     inkscape:showpageshadow="0"
     inkscape:pageopacity="0"
     inkscape:pagecheckerboard="0"
     inkscape:deskcolor="#d1d1d1"
     inkscape:document-units="px"
     showgrid="false"
     inkscape:zoom="0.2287265"
     inkscape:cx="4385.1499"
     inkscape:cy="3904.2262"
     inkscape:window-width="3770"
     inkscape:window-height="2096"
     inkscape:window-x="70"
     inkscape:window-y="27"
     inkscape:window-maximized="1"
     inkscape:current-layer="layer1" /><defs
     id="defs2"><rect
       x="166.94061"
       y="644.21729"
       width="253.55692"
       height="174.72342"
       id="rect118" /><rect
       x="188.38824"
       y="755.18182"
       width="124.41068"
       height="120.90973"
       id="rect278" /><rect
       x="285.9205"
       y="631.31671"
       width="276.65341"
       height="111.29527"
       id="rect277" /><style
       id="style195">
      .cls-1 {
        fill: #1d1d1b;
        stroke-width: 0px;
      }
    </style></defs><g
     inkscape:label="Layer 1"
     inkscape:groupmode="layer"
     id="layer1"><g
       id="g215"
       transform="matrix(12.999638,0,0,12.999638,264.39071,153.66194)"><path
         class="cls-1"
         d="m 115.43,95.64 c -0.49,-0.11 -0.97,-0.27 -1.44,-0.42 -1.84,-0.58 -3,-1.78 -3.31,-3.72 -0.11,-0.7 -0.17,-1.41 -0.24,-2.11 -0.1,-0.88 -0.63,-1.45 -1.45,-1.53 -0.82,-0.08 -1.46,0.37 -1.72,1.22 -0.18,0.59 -0.35,1.19 -0.54,1.78 -0.59,1.8 -1.79,2.92 -3.68,3.23 -0.73,0.12 -1.47,0.16 -2.2,0.25 -0.8,0.1 -1.37,0.64 -1.45,1.38 -0.09,0.81 0.29,1.43 1.08,1.72 0.51,0.18 1.04,0.34 1.57,0.48 1.74,0.47 3,1.48 3.46,3.27 0.22,0.86 0.25,1.78 0.36,2.67 0.1,0.87 0.66,1.45 1.47,1.52 0.78,0.07 1.44,-0.4 1.7,-1.21 0.15,-0.46 0.29,-0.93 0.41,-1.4 0.55,-2.03 1.79,-3.33 3.91,-3.66 0.58,-0.09 1.17,-0.16 1.76,-0.19 0.82,-0.03 1.41,-0.37 1.76,-1.11 0.17,-0.34 0.12,-0.61 0.08,-0.8 -0.25,-0.75 -0.75,-1.2 -1.52,-1.38 z"
         id="path199" /><path
         class="cls-1"
         d="m 59.81,12.11 c 0.7,0.23 1.41,0.45 2.12,0.65 2.7,0.77 4.33,2.49 4.74,5.3 0.13,0.93 0.19,1.88 0.32,2.82 0.12,0.87 0.77,1.46 1.64,1.55 0.93,0.09 1.68,-0.39 1.98,-1.29 0.28,-0.86 0.51,-1.73 0.79,-2.58 0.79,-2.35 2.38,-3.8 4.84,-4.23 1,-0.18 2.02,-0.23 3.03,-0.36 0.94,-0.12 1.55,-0.75 1.65,-1.64 0.1,-0.93 -0.37,-1.67 -1.29,-1.98 C 78.82,10.08 77.99,9.84 77.18,9.59 74.77,8.83 73.26,7.23 72.81,4.72 72.63,3.71 72.58,2.67 72.45,1.64 72.33,0.72 71.67,0.11 70.77,0.02 69.88,-0.06 69.14,0.39 68.84,1.25 68.56,2.06 68.33,2.88 68.08,3.7 67.31,6.17 65.69,7.69 63.12,8.13 62.13,8.3 61.13,8.35 60.13,8.48 c -0.94,0.13 -1.54,0.76 -1.63,1.66 -0.09,0.91 0.4,1.66 1.31,1.97 z"
         id="path201" /><path
         class="cls-1"
         d="M 9.96,75.05 C 9.75,74.95 9.52,74.88 9.3,74.81 8.11,74.42 7.38,73.63 7.19,72.38 7.15,72.1 7.12,71.82 7.05,71.55 6.9,70.95 6.46,70.59 5.85,70.54 5.1,70.48 4.57,70.9 4.32,71.79 c -0.37,1.32 -1.21,2.09 -2.57,2.3 -0.28,0.04 -0.56,0.06 -0.83,0.14 -0.51,0.14 -0.93,0.65 -0.94,1.17 -0.01,0.55 0.16,1.03 0.69,1.29 0.28,0.14 0.57,0.23 0.86,0.33 1.11,0.4 1.78,1.17 1.97,2.34 0.05,0.3 0.08,0.62 0.16,0.91 0.19,0.69 0.83,1.07 1.53,0.95 0.7,-0.12 1,-0.61 1.17,-1.23 0.38,-1.35 1.24,-2.14 2.66,-2.3 0.23,-0.03 0.47,-0.06 0.69,-0.12 0.54,-0.15 0.94,-0.65 0.99,-1.18 0.04,-0.55 -0.25,-1.08 -0.77,-1.33 z"
         id="path203" /><path
         class="cls-1"
         d="m 109.25,61.57 c 0,-0.66 -0.03,-1.31 -0.08,-1.96 0.04,-5.67 -0.18,-41.9 -12.48,-52.9 -0.38,-0.9 -1.3,-1.65 -3.1,-0.98 -1.8,0.66 -10.82,16.73 -12.46,24.15 -6.03,-1.99 -12.71,-3.1 -19.76,-3.1 -7.05,0 -14,1.16 -20.12,3.22 C 39.21,22.3 30.71,7.25 28.98,6.61 27.18,5.94 26.26,6.69 25.88,7.59 12.52,19.54 13.41,61.24 13.41,61.24 c 0.03,-0.04 0.06,-0.08 0.09,-0.13 0,0.16 -0.02,0.31 -0.02,0.46 0,19.22 21.44,34.81 47.89,34.81 26.45,0 47.89,-15.58 47.89,-34.81 z M 71.49,54.72 c 0.55,-0.33 1.12,-0.56 1.65,-0.93 1.39,-0.95 2.04,-2.97 2.02,-5.92 0,-0.97 -0.13,-2.8 -0.12,-3.77 0,-1.03 0.35,-1.68 0.88,-1.74 0.54,-0.06 1.03,0.52 1.27,1.54 0.27,1.14 0.59,3.16 0.88,4.28 0.73,2.77 1.9,4.32 3.43,4.76 0.52,0.15 1.04,0.27 1.56,0.44 0.59,0.19 1.12,-0.01 1.24,1.06 0.11,1.03 -0.45,1.13 -0.96,1.43 -0.56,0.33 -1.14,0.57 -1.68,0.94 -1.33,0.92 -2.07,2.01 -2.09,4.82 0,1.02 0.03,2.05 0.03,3.08 0,1.08 -0.34,1.76 -0.9,1.82 -0.52,0.05 -1,-0.5 -1.23,-1.47 -0.25,-1.04 -0.46,-2.11 -0.71,-3.14 -0.76,-3.13 -1.93,-3.94 -3.63,-4.34 -0.45,-0.11 -0.89,-0.22 -1.34,-0.36 -0.58,-0.18 -1.18,-0.15 -1.3,-1.2 -0.12,-1.04 0.48,-0.98 1,-1.3 z m -5.3,15.02 c 0.1,0.8 -1.23,2.66 -2.17,2.77 -0.89,0.11 -2.35,-1.43 -2.45,-2.21 -0.1,-0.82 4.54,-1.27 4.62,-0.56 z M 40.95,58.64 c 0.55,-0.33 1.12,-0.56 1.65,-0.93 1.39,-0.95 2.04,-2.97 2.02,-5.92 0,-0.97 -0.13,-2.8 -0.12,-3.77 0,-1.03 0.35,-1.68 0.88,-1.74 0.54,-0.06 1.03,0.52 1.27,1.54 0.27,1.14 0.59,3.16 0.88,4.28 0.73,2.77 1.9,4.32 3.43,4.76 0.52,0.15 1.04,0.27 1.56,0.44 0.59,0.19 1.12,-0.01 1.24,1.06 0.11,1.03 -0.45,1.13 -0.96,1.43 -0.56,0.33 -1.14,0.57 -1.68,0.94 -1.33,0.92 -2.07,2.01 -2.09,4.82 0,1.02 0.03,2.05 0.03,3.08 0,1.08 -0.34,1.76 -0.9,1.82 -0.52,0.05 -1,-0.5 -1.23,-1.47 -0.25,-1.04 -0.46,-2.11 -0.71,-3.14 -0.76,-3.13 -1.93,-3.94 -3.63,-4.34 -0.45,-0.11 -0.89,-0.22 -1.34,-0.36 -0.58,-0.18 -1.18,-0.15 -1.3,-1.2 -0.12,-1.04 0.48,-0.98 1,-1.3 z m 25.59,32.5 C 30,95.55 22.34,70.14 22.29,69.96 c 0,-0.04 -0.11,-0.93 -0.23,-1.91 4.91,7.64 14.47,12.17 22.04,12.77 6.54,0.52 16.35,-2.13 20.39,-6.77 4.92,3.46 14.59,3.29 21.33,1.07 7.33,-2.42 14.58,-6.21 18.43,-17.19 0.13,1.04 0.25,2.04 0.25,2.04 -0.01,0.28 -1.41,26.76 -37.95,31.17 z"
         id="path205" /></g><text
       xml:space="preserve"
       transform="matrix(8.8883237,0,0,8.8883237,-1231.9008,-4055.8987)"
       id="text116"
       style="font-weight:800;font-size:24px;font-family:'Source Serif 4';-inkscape-font-specification:'Source Serif 4 Ultra-Bold';white-space:pre;shape-inside:url(#rect118);display:inline;fill:#1d1d1b;fill-opacity:1"><tspan
         x="166.94141"
         y="665.35246"
         id="tspan2"><tspan
           style="font-weight:bold;font-family:'Source Serif 4 18pt';-inkscape-font-specification:'Source Serif 4 18pt Bold'"
           id="tspan1">Cheshire Cat AI</tspan></tspan></text></g></svg>
