<svg xmlns="http://www.w3.org/2000/svg" width="32" height="32" viewBox="0 0 512 512">
    <path d="M475 25.4c-2 .7-24.7 10.1-50.6 20.9-25.8 10.8-49.2 20.1-51.9 20.7-5.8 1.3-7.6 1-22.8-4.1-16.5-5.5-32.9-9.5-49.2-12.1-19.1-3-67.5-3.3-85.5-.5-17.8 2.8-33.1 6.4-50 12-11.3 3.7-17 5.1-21.1 5-5 0-11.7-2.4-57.5-20.9C34.7 25.6 34.5 25.5 27 25.5c-8.9.1-13.6 2.1-19.4 8.5C-.1 42.5.5 32.4.2 159-.1 276.9.2 288 4 306.5c6.7 31.8 20.5 61.1 40.6 86 9 11.2 28.2 30.1 39.4 38.7 40.3 31.1 89.9 50.4 143.4 55.9 15.3 1.5 54.1.7 69.1-1.5 87.7-13 160-61.8 194-131 11.4-23.2 18.3-48.3 20.5-74.6.8-9.4 1-47 .8-124.5-.3-110.1-.3-111-2.4-115.5-2.5-5.5-7.2-10.4-12.8-13.2-5.1-2.6-16.5-3.4-21.6-1.4zM177.8 266.2c10.8 4.1 21.4 15.5 24.8 26.8 8 26.9-12.2 54-40.2 54-23.1 0-41.6-18.6-41.6-41.9 0-20 13.9-37 33.4-41.1 6-1.2 17.1-.2 23.6 2.2zm178.6-2.2c19.9 3.2 34.8 20.8 34.8 41 0 40.6-50.8 57.4-75.4 24.9-9.8-13-10.8-31.9-2.3-46.3 5.4-9.3 17-17.4 27.7-19.5 6-1.2 8.4-1.2 15.2-.1z"/>
</svg>