<?xml version="1.0" encoding="UTF-8"?>
<svg id="Livello_1" data-name="Livello 1" xmlns="http://www.w3.org/2000/svg" viewBox="0 0 117 105.39">
  <defs>
    <style>
      .cls-1 {
        fill: #1d1d1b;
        stroke-width: 0px;
      }
    </style>
  </defs>
  <path class="cls-1" d="m115.43,95.64c-.49-.11-.97-.27-1.44-.42-1.84-.58-3-1.78-3.31-3.72-.11-.7-.17-1.41-.24-2.11-.1-.88-.63-1.45-1.45-1.53-.82-.08-1.46.37-1.72,1.22-.18.59-.35,1.19-.54,1.78-.59,1.8-1.79,2.92-3.68,3.23-.73.12-1.47.16-2.2.25-.8.1-1.37.64-1.45,1.38-.09.81.29,1.43,1.08,1.72.51.18,1.04.34,1.57.48,1.74.47,3,1.48,3.46,3.27.22.86.25,1.78.36,2.67.1.87.66,1.45,1.47,1.52.78.07,1.44-.4,1.7-1.21.15-.46.29-.93.41-1.4.55-2.03,1.79-3.33,3.91-3.66.58-.09,1.17-.16,1.76-.19.82-.03,1.41-.37,1.76-1.11.17-.34.12-.61.08-.8-.25-.75-.75-1.2-1.52-1.38Z"/>
  <path class="cls-1" d="m59.81,12.11c.7.23,1.41.45,2.12.65,2.7.77,4.33,2.49,4.74,5.3.13.93.19,1.88.32,2.82.12.87.77,1.46,1.64,1.55.93.09,1.68-.39,1.98-1.29.28-.86.51-1.73.79-2.58.79-2.35,2.38-3.8,4.84-4.23,1-.18,2.02-.23,3.03-.36.94-.12,1.55-.75,1.65-1.64.1-.93-.37-1.67-1.29-1.98-.81-.27-1.64-.51-2.45-.76-2.41-.76-3.92-2.36-4.37-4.87-.18-1.01-.23-2.05-.36-3.08-.12-.92-.78-1.53-1.68-1.62-.89-.08-1.63.37-1.93,1.23-.28.81-.51,1.63-.76,2.45-.77,2.47-2.39,3.99-4.96,4.43-.99.17-1.99.22-2.99.35-.94.13-1.54.76-1.63,1.66-.09.91.4,1.66,1.31,1.97Z"/>
  <path class="cls-1" d="m9.96,75.05c-.21-.1-.44-.17-.66-.24-1.19-.39-1.92-1.18-2.11-2.43-.04-.28-.07-.56-.14-.83-.15-.6-.59-.96-1.2-1.01-.75-.06-1.28.36-1.53,1.25-.37,1.32-1.21,2.09-2.57,2.3-.28.04-.56.06-.83.14-.51.14-.93.65-.94,1.17-.01.55.16,1.03.69,1.29.28.14.57.23.86.33,1.11.4,1.78,1.17,1.97,2.34.05.3.08.62.16.91.19.69.83,1.07,1.53.95.7-.12,1-.61,1.17-1.23.38-1.35,1.24-2.14,2.66-2.3.23-.03.47-.06.69-.12.54-.15.94-.65.99-1.18.04-.55-.25-1.08-.77-1.33Z"/>
  <path class="cls-1" d="m109.25,61.57c0-.66-.03-1.31-.08-1.96.04-5.67-.18-41.9-12.48-52.9-.38-.9-1.3-1.65-3.1-.98-1.8.66-10.82,16.73-12.46,24.15-6.03-1.99-12.71-3.1-19.76-3.1s-14,1.16-20.12,3.22c-2.04-7.7-10.54-22.75-12.27-23.39-1.8-.67-2.72.08-3.1.98-13.36,11.95-12.47,53.65-12.47,53.65.03-.04.06-.08.09-.13,0,.16-.02.31-.02.46,0,19.22,21.44,34.81,47.89,34.81s47.89-15.58,47.89-34.81Zm-37.76-6.85c.55-.33,1.12-.56,1.65-.93,1.39-.95,2.04-2.97,2.02-5.92,0-.97-.13-2.8-.12-3.77,0-1.03.35-1.68.88-1.74.54-.06,1.03.52,1.27,1.54.27,1.14.59,3.16.88,4.28.73,2.77,1.9,4.32,3.43,4.76.52.15,1.04.27,1.56.44.59.19,1.12-.01,1.24,1.06.11,1.03-.45,1.13-.96,1.43-.56.33-1.14.57-1.68.94-1.33.92-2.07,2.01-2.09,4.82,0,1.02.03,2.05.03,3.08,0,1.08-.34,1.76-.9,1.82-.52.05-1-.5-1.23-1.47-.25-1.04-.46-2.11-.71-3.14-.76-3.13-1.93-3.94-3.63-4.34-.45-.11-.89-.22-1.34-.36-.58-.18-1.18-.15-1.3-1.2-.12-1.04.48-.98,1-1.3Zm-5.3,15.02c.1.8-1.23,2.66-2.17,2.77-.89.11-2.35-1.43-2.45-2.21-.1-.82,4.54-1.27,4.62-.56Zm-25.24-11.1c.55-.33,1.12-.56,1.65-.93,1.39-.95,2.04-2.97,2.02-5.92,0-.97-.13-2.8-.12-3.77,0-1.03.35-1.68.88-1.74.54-.06,1.03.52,1.27,1.54.27,1.14.59,3.16.88,4.28.73,2.77,1.9,4.32,3.43,4.76.52.15,1.04.27,1.56.44.59.19,1.12-.01,1.24,1.06.11,1.03-.45,1.13-.96,1.43-.56.33-1.14.57-1.68.94-1.33.92-2.07,2.01-2.09,4.82,0,1.02.03,2.05.03,3.08,0,1.08-.34,1.76-.9,1.82-.52.05-1-.5-1.23-1.47-.25-1.04-.46-2.11-.71-3.14-.76-3.13-1.93-3.94-3.63-4.34-.45-.11-.89-.22-1.34-.36-.58-.18-1.18-.15-1.3-1.2-.12-1.04.48-.98,1-1.3Zm25.59,32.5c-36.54,4.41-44.2-21-44.25-21.18,0-.04-.11-.93-.23-1.91,4.91,7.64,14.47,12.17,22.04,12.77,6.54.52,16.35-2.13,20.39-6.77,4.92,3.46,14.59,3.29,21.33,1.07,7.33-2.42,14.58-6.21,18.43-17.19.13,1.04.25,2.04.25,2.04-.01.28-1.41,26.76-37.95,31.17Z"/>
</svg>